<svg id="Layer_1" data-name="Layer 1" xmlns="http://www.w3.org/2000/svg" viewBox="0 0 48 46.88"><defs><style>.cls-1{fill:#010101;}</style></defs><path class="cls-1" d="M42.14,1.12H5.87C2.63,1.12,0,4.5,0,8.66V40.47C0,44.62,2.63,48,5.87,48H42.13C45.37,48,48,44.62,48,40.47V8.67C48,4.52,45.38,1.12,42.14,1.12Zm3.19,39.35c0,2.25-1.43,4.09-3.19,4.09H5.87c-1.76,0-3.19-1.84-3.19-4.09V8.67c0-2.26,1.43-4.09,3.19-4.09H42.13c1.76,0,3.19,1.83,3.19,4.09v31.8Z" transform="translate(0 -1.13)"/><path class="cls-1" d="M30.27,24.17,42,10.66a2.09,2.09,0,0,0,.1-2.44,1.15,1.15,0,0,0-1.9-.12L24,26.74l-3.15-3.62a.05.05,0,0,1,0,0,2.5,2.5,0,0,0-.22-.24L7.78,8.08a1.15,1.15,0,0,0-1.9.14A2.07,2.07,0,0,0,6,10.66L17.87,24.28,6,38.49A2.09,2.09,0,0,0,6,40.93a1.25,1.25,0,0,0,1,.54A1.22,1.22,0,0,0,7.88,41l12-14.42,3.26,3.74a1.2,1.2,0,0,0,.89.43,1.18,1.18,0,0,0,.9-.45l3.35-3.85L40.21,41a1.2,1.2,0,0,0,.93.47,1.22,1.22,0,0,0,1-.54,2.07,2.07,0,0,0,0-2.43Z" transform="translate(0 -1.13)"/></svg>